<mxfile host="app.diagrams.net" modified="2024-06-21T10:08:18.311Z" agent="Mozilla/5.0 (Windows NT 10.0; Win64; x64) AppleWebKit/537.36 (KHTML, like Gecko) Chrome/126.0.0.0 Safari/537.36" etag="TuOVB3pdBRuqWbGllXJd" version="24.5.5" type="device">
  <diagram name="Trang-1" id="EyopmbSJvsomWJK2xoOn">
    <mxGraphModel dx="1456" dy="713" grid="1" gridSize="10" guides="1" tooltips="1" connect="1" arrows="1" fold="1" page="1" pageScale="1" pageWidth="827" pageHeight="1169" math="0" shadow="0">
      <root>
        <mxCell id="0" />
        <mxCell id="1" parent="0" />
        <mxCell id="_zV6KzTDaz2BEm2wTDxe-26" value="budget pkg" style="shape=umlFrame;whiteSpace=wrap;html=1;pointerEvents=0;recursiveResize=0;container=1;collapsible=0;width=160;" vertex="1" parent="1">
          <mxGeometry y="780" width="740" height="480" as="geometry" />
        </mxCell>
        <mxCell id="_zV6KzTDaz2BEm2wTDxe-43" value="" style="html=1;verticalAlign=bottom;labelBackgroundColor=none;endArrow=open;endFill=0;dashed=1;rounded=0;" edge="1" parent="_zV6KzTDaz2BEm2wTDxe-26" source="_zV6KzTDaz2BEm2wTDxe-29">
          <mxGeometry width="160" relative="1" as="geometry">
            <mxPoint x="428" y="140" as="sourcePoint" />
            <mxPoint x="286.53846153846143" y="160" as="targetPoint" />
          </mxGeometry>
        </mxCell>
        <mxCell id="_zV6KzTDaz2BEm2wTDxe-44" value="" style="html=1;verticalAlign=bottom;labelBackgroundColor=none;endArrow=open;endFill=0;dashed=1;rounded=0;" edge="1" parent="_zV6KzTDaz2BEm2wTDxe-26" target="_zV6KzTDaz2BEm2wTDxe-35">
          <mxGeometry width="160" relative="1" as="geometry">
            <mxPoint x="375" y="110" as="sourcePoint" />
            <mxPoint x="181" y="210" as="targetPoint" />
          </mxGeometry>
        </mxCell>
        <mxCell id="_zV6KzTDaz2BEm2wTDxe-45" value="" style="html=1;verticalAlign=bottom;labelBackgroundColor=none;endArrow=open;endFill=0;dashed=1;rounded=0;" edge="1" parent="_zV6KzTDaz2BEm2wTDxe-26" target="_zV6KzTDaz2BEm2wTDxe-37">
          <mxGeometry width="160" relative="1" as="geometry">
            <mxPoint x="225" y="240" as="sourcePoint" />
            <mxPoint x="198" y="330" as="targetPoint" />
          </mxGeometry>
        </mxCell>
        <mxCell id="_zV6KzTDaz2BEm2wTDxe-52" value="" style="html=1;verticalAlign=bottom;labelBackgroundColor=none;endArrow=open;endFill=0;dashed=1;rounded=0;" edge="1" parent="_zV6KzTDaz2BEm2wTDxe-26" target="_zV6KzTDaz2BEm2wTDxe-50">
          <mxGeometry width="160" relative="1" as="geometry">
            <mxPoint x="296.1111111111111" y="240" as="sourcePoint" />
            <mxPoint x="556" y="310" as="targetPoint" />
          </mxGeometry>
        </mxCell>
        <mxCell id="_zV6KzTDaz2BEm2wTDxe-55" value="" style="html=1;verticalAlign=bottom;labelBackgroundColor=none;endArrow=open;endFill=0;dashed=1;rounded=0;" edge="1" parent="_zV6KzTDaz2BEm2wTDxe-26" target="_zV6KzTDaz2BEm2wTDxe-53">
          <mxGeometry width="160" relative="1" as="geometry">
            <mxPoint x="330" y="236.5625" as="sourcePoint" />
            <mxPoint x="715" y="310" as="targetPoint" />
          </mxGeometry>
        </mxCell>
        <mxCell id="_zV6KzTDaz2BEm2wTDxe-61" value="" style="html=1;verticalAlign=bottom;labelBackgroundColor=none;endArrow=open;endFill=0;dashed=1;rounded=0;" edge="1" parent="_zV6KzTDaz2BEm2wTDxe-26" target="_zV6KzTDaz2BEm2wTDxe-59">
          <mxGeometry width="160" relative="1" as="geometry">
            <mxPoint x="260.55555555555566" y="240" as="sourcePoint" />
            <mxPoint x="368" y="350" as="targetPoint" />
          </mxGeometry>
        </mxCell>
        <mxCell id="_zV6KzTDaz2BEm2wTDxe-62" value="" style="html=1;verticalAlign=bottom;labelBackgroundColor=none;endArrow=open;endFill=0;dashed=1;rounded=0;" edge="1" parent="_zV6KzTDaz2BEm2wTDxe-26" source="_zV6KzTDaz2BEm2wTDxe-50">
          <mxGeometry width="160" relative="1" as="geometry">
            <mxPoint x="302" y="250" as="sourcePoint" />
            <mxPoint x="520" y="380" as="targetPoint" />
          </mxGeometry>
        </mxCell>
        <mxCell id="_zV6KzTDaz2BEm2wTDxe-66" value="controller" style="shape=folder;fontStyle=1;tabWidth=110;tabHeight=30;tabPosition=left;html=1;boundedLbl=1;labelInHeader=1;container=1;collapsible=0;recursiveResize=0;whiteSpace=wrap;" vertex="1" parent="_zV6KzTDaz2BEm2wTDxe-26">
          <mxGeometry x="20" y="60" width="170" height="100" as="geometry" />
        </mxCell>
        <mxCell id="_zV6KzTDaz2BEm2wTDxe-73" value="BudgetController" style="swimlane;fontStyle=1;align=center;verticalAlign=top;childLayout=stackLayout;horizontal=1;startSize=26;horizontalStack=0;resizeParent=1;resizeParentMax=0;resizeLast=0;collapsible=1;marginBottom=0;whiteSpace=wrap;html=1;" vertex="1" parent="_zV6KzTDaz2BEm2wTDxe-66">
          <mxGeometry x="15" y="50" width="140" height="34" as="geometry" />
        </mxCell>
        <mxCell id="_zV6KzTDaz2BEm2wTDxe-75" value="" style="line;strokeWidth=1;fillColor=none;align=left;verticalAlign=middle;spacingTop=-1;spacingLeft=3;spacingRight=3;rotatable=0;labelPosition=right;points=[];portConstraint=eastwest;strokeColor=inherit;" vertex="1" parent="_zV6KzTDaz2BEm2wTDxe-73">
          <mxGeometry y="26" width="140" height="8" as="geometry" />
        </mxCell>
        <mxCell id="_zV6KzTDaz2BEm2wTDxe-68" value="repo" style="shape=folder;fontStyle=1;tabWidth=110;tabHeight=30;tabPosition=left;html=1;boundedLbl=1;labelInHeader=1;container=1;collapsible=0;recursiveResize=0;whiteSpace=wrap;" vertex="1" parent="_zV6KzTDaz2BEm2wTDxe-26">
          <mxGeometry x="80" y="260" width="480" height="200" as="geometry" />
        </mxCell>
        <mxCell id="_zV6KzTDaz2BEm2wTDxe-83" value="&lt;span style=&quot;font-weight: normal;&quot;&gt;&amp;lt;&amp;lt;interface&amp;gt;&amp;gt;&lt;/span&gt;&lt;br&gt;JpaRepository" style="swimlane;fontStyle=1;align=center;verticalAlign=top;childLayout=stackLayout;horizontal=1;startSize=40;horizontalStack=0;resizeParent=1;resizeParentMax=0;resizeLast=0;collapsible=1;marginBottom=0;whiteSpace=wrap;html=1;" vertex="1" parent="_zV6KzTDaz2BEm2wTDxe-68">
          <mxGeometry x="110" y="140" width="140" height="48" as="geometry" />
        </mxCell>
        <mxCell id="_zV6KzTDaz2BEm2wTDxe-84" value="" style="line;strokeWidth=1;fillColor=none;align=left;verticalAlign=middle;spacingTop=-1;spacingLeft=3;spacingRight=3;rotatable=0;labelPosition=right;points=[];portConstraint=eastwest;strokeColor=inherit;" vertex="1" parent="_zV6KzTDaz2BEm2wTDxe-83">
          <mxGeometry y="40" width="140" height="8" as="geometry" />
        </mxCell>
        <mxCell id="_zV6KzTDaz2BEm2wTDxe-85" value="&lt;span style=&quot;font-weight: normal;&quot;&gt;&amp;lt;&amp;lt;interface&amp;gt;&amp;gt;&lt;/span&gt;&lt;br&gt;BudgetLimitHistoryRepo" style="swimlane;fontStyle=1;align=center;verticalAlign=top;childLayout=stackLayout;horizontal=1;startSize=40;horizontalStack=0;resizeParent=1;resizeParentMax=0;resizeLast=0;collapsible=1;marginBottom=0;whiteSpace=wrap;html=1;" vertex="1" parent="_zV6KzTDaz2BEm2wTDxe-68">
          <mxGeometry x="190" y="40" width="154" height="48" as="geometry" />
        </mxCell>
        <mxCell id="_zV6KzTDaz2BEm2wTDxe-86" value="" style="line;strokeWidth=1;fillColor=none;align=left;verticalAlign=middle;spacingTop=-1;spacingLeft=3;spacingRight=3;rotatable=0;labelPosition=right;points=[];portConstraint=eastwest;strokeColor=inherit;" vertex="1" parent="_zV6KzTDaz2BEm2wTDxe-85">
          <mxGeometry y="40" width="154" height="8" as="geometry" />
        </mxCell>
        <mxCell id="_zV6KzTDaz2BEm2wTDxe-87" value="&lt;span style=&quot;font-weight: normal;&quot;&gt;&amp;lt;&amp;lt;interface&amp;gt;&amp;gt;&lt;/span&gt;&lt;br&gt;BudgetCategoryRepo" style="swimlane;fontStyle=1;align=center;verticalAlign=top;childLayout=stackLayout;horizontal=1;startSize=40;horizontalStack=0;resizeParent=1;resizeParentMax=0;resizeLast=0;collapsible=1;marginBottom=0;whiteSpace=wrap;html=1;" vertex="1" parent="_zV6KzTDaz2BEm2wTDxe-68">
          <mxGeometry x="10" y="40" width="140" height="48" as="geometry" />
        </mxCell>
        <mxCell id="_zV6KzTDaz2BEm2wTDxe-88" value="" style="line;strokeWidth=1;fillColor=none;align=left;verticalAlign=middle;spacingTop=-1;spacingLeft=3;spacingRight=3;rotatable=0;labelPosition=right;points=[];portConstraint=eastwest;strokeColor=inherit;" vertex="1" parent="_zV6KzTDaz2BEm2wTDxe-87">
          <mxGeometry y="40" width="140" height="8" as="geometry" />
        </mxCell>
        <mxCell id="_zV6KzTDaz2BEm2wTDxe-98" value="" style="endArrow=block;endSize=16;endFill=0;html=1;rounded=0;" edge="1" parent="_zV6KzTDaz2BEm2wTDxe-68" source="_zV6KzTDaz2BEm2wTDxe-85" target="_zV6KzTDaz2BEm2wTDxe-83">
          <mxGeometry width="160" relative="1" as="geometry">
            <mxPoint x="445" y="-64" as="sourcePoint" />
            <mxPoint x="445" y="-136" as="targetPoint" />
          </mxGeometry>
        </mxCell>
        <mxCell id="_zV6KzTDaz2BEm2wTDxe-99" value="" style="endArrow=block;endSize=16;endFill=0;html=1;rounded=0;" edge="1" parent="_zV6KzTDaz2BEm2wTDxe-68" source="_zV6KzTDaz2BEm2wTDxe-87" target="_zV6KzTDaz2BEm2wTDxe-83">
          <mxGeometry width="160" relative="1" as="geometry">
            <mxPoint x="256" y="98" as="sourcePoint" />
            <mxPoint x="211" y="150" as="targetPoint" />
          </mxGeometry>
        </mxCell>
        <mxCell id="_zV6KzTDaz2BEm2wTDxe-106" value="&lt;span style=&quot;font-weight: normal;&quot;&gt;&amp;lt;&amp;lt;interface&amp;gt;&amp;gt;&lt;/span&gt;&lt;br&gt;LogoRepo" style="swimlane;fontStyle=1;align=center;verticalAlign=top;childLayout=stackLayout;horizontal=1;startSize=40;horizontalStack=0;resizeParent=1;resizeParentMax=0;resizeLast=0;collapsible=1;marginBottom=0;whiteSpace=wrap;html=1;" vertex="1" parent="_zV6KzTDaz2BEm2wTDxe-68">
          <mxGeometry x="316" y="100" width="154" height="48" as="geometry" />
        </mxCell>
        <mxCell id="_zV6KzTDaz2BEm2wTDxe-107" value="" style="line;strokeWidth=1;fillColor=none;align=left;verticalAlign=middle;spacingTop=-1;spacingLeft=3;spacingRight=3;rotatable=0;labelPosition=right;points=[];portConstraint=eastwest;strokeColor=inherit;" vertex="1" parent="_zV6KzTDaz2BEm2wTDxe-106">
          <mxGeometry y="40" width="154" height="8" as="geometry" />
        </mxCell>
        <mxCell id="_zV6KzTDaz2BEm2wTDxe-109" value="" style="endArrow=block;endSize=16;endFill=0;html=1;rounded=0;" edge="1" parent="_zV6KzTDaz2BEm2wTDxe-68" source="_zV6KzTDaz2BEm2wTDxe-106" target="_zV6KzTDaz2BEm2wTDxe-83">
          <mxGeometry width="160" relative="1" as="geometry">
            <mxPoint x="256" y="98" as="sourcePoint" />
            <mxPoint x="211" y="150" as="targetPoint" />
          </mxGeometry>
        </mxCell>
        <mxCell id="_zV6KzTDaz2BEm2wTDxe-70" value="service" style="shape=folder;fontStyle=1;tabWidth=110;tabHeight=30;tabPosition=left;html=1;boundedLbl=1;labelInHeader=1;container=1;collapsible=0;recursiveResize=0;whiteSpace=wrap;" vertex="1" parent="_zV6KzTDaz2BEm2wTDxe-26">
          <mxGeometry x="340" y="20" width="370" height="220" as="geometry" />
        </mxCell>
        <mxCell id="_zV6KzTDaz2BEm2wTDxe-77" value="&lt;span style=&quot;font-weight: normal;&quot;&gt;&amp;lt;&amp;lt;interface&amp;gt;&amp;gt;&lt;/span&gt;&lt;br&gt;BudgetService" style="swimlane;fontStyle=1;align=center;verticalAlign=top;childLayout=stackLayout;horizontal=1;startSize=40;horizontalStack=0;resizeParent=1;resizeParentMax=0;resizeLast=0;collapsible=1;marginBottom=0;whiteSpace=wrap;html=1;" vertex="1" parent="_zV6KzTDaz2BEm2wTDxe-70">
          <mxGeometry x="25" y="46" width="140" height="48" as="geometry" />
        </mxCell>
        <mxCell id="_zV6KzTDaz2BEm2wTDxe-78" value="" style="line;strokeWidth=1;fillColor=none;align=left;verticalAlign=middle;spacingTop=-1;spacingLeft=3;spacingRight=3;rotatable=0;labelPosition=right;points=[];portConstraint=eastwest;strokeColor=inherit;" vertex="1" parent="_zV6KzTDaz2BEm2wTDxe-77">
          <mxGeometry y="40" width="140" height="8" as="geometry" />
        </mxCell>
        <mxCell id="_zV6KzTDaz2BEm2wTDxe-79" value="BudgetServiceImpl" style="swimlane;fontStyle=1;align=center;verticalAlign=top;childLayout=stackLayout;horizontal=1;startSize=26;horizontalStack=0;resizeParent=1;resizeParentMax=0;resizeLast=0;collapsible=1;marginBottom=0;whiteSpace=wrap;html=1;" vertex="1" parent="_zV6KzTDaz2BEm2wTDxe-70">
          <mxGeometry x="25" y="160" width="140" height="34" as="geometry" />
        </mxCell>
        <mxCell id="_zV6KzTDaz2BEm2wTDxe-80" value="" style="line;strokeWidth=1;fillColor=none;align=left;verticalAlign=middle;spacingTop=-1;spacingLeft=3;spacingRight=3;rotatable=0;labelPosition=right;points=[];portConstraint=eastwest;strokeColor=inherit;" vertex="1" parent="_zV6KzTDaz2BEm2wTDxe-79">
          <mxGeometry y="26" width="140" height="8" as="geometry" />
        </mxCell>
        <mxCell id="_zV6KzTDaz2BEm2wTDxe-93" value="" style="endArrow=block;endSize=16;endFill=0;html=1;rounded=0;" edge="1" parent="_zV6KzTDaz2BEm2wTDxe-70" source="_zV6KzTDaz2BEm2wTDxe-79" target="_zV6KzTDaz2BEm2wTDxe-77">
          <mxGeometry width="160" relative="1" as="geometry">
            <mxPoint x="-150" y="130" as="sourcePoint" />
            <mxPoint x="10" y="130" as="targetPoint" />
          </mxGeometry>
        </mxCell>
        <mxCell id="_zV6KzTDaz2BEm2wTDxe-100" value="&lt;span style=&quot;font-weight: normal;&quot;&gt;&amp;lt;&amp;lt;interface&amp;gt;&amp;gt;&lt;/span&gt;&lt;br&gt;LogoService" style="swimlane;fontStyle=1;align=center;verticalAlign=top;childLayout=stackLayout;horizontal=1;startSize=40;horizontalStack=0;resizeParent=1;resizeParentMax=0;resizeLast=0;collapsible=1;marginBottom=0;whiteSpace=wrap;html=1;" vertex="1" parent="_zV6KzTDaz2BEm2wTDxe-70">
          <mxGeometry x="210" y="46" width="140" height="48" as="geometry" />
        </mxCell>
        <mxCell id="_zV6KzTDaz2BEm2wTDxe-101" value="" style="line;strokeWidth=1;fillColor=none;align=left;verticalAlign=middle;spacingTop=-1;spacingLeft=3;spacingRight=3;rotatable=0;labelPosition=right;points=[];portConstraint=eastwest;strokeColor=inherit;" vertex="1" parent="_zV6KzTDaz2BEm2wTDxe-100">
          <mxGeometry y="40" width="140" height="8" as="geometry" />
        </mxCell>
        <mxCell id="_zV6KzTDaz2BEm2wTDxe-102" value="LogoServiceImpl" style="swimlane;fontStyle=1;align=center;verticalAlign=top;childLayout=stackLayout;horizontal=1;startSize=26;horizontalStack=0;resizeParent=1;resizeParentMax=0;resizeLast=0;collapsible=1;marginBottom=0;whiteSpace=wrap;html=1;" vertex="1" parent="_zV6KzTDaz2BEm2wTDxe-70">
          <mxGeometry x="210" y="160" width="140" height="34" as="geometry" />
        </mxCell>
        <mxCell id="_zV6KzTDaz2BEm2wTDxe-103" value="" style="line;strokeWidth=1;fillColor=none;align=left;verticalAlign=middle;spacingTop=-1;spacingLeft=3;spacingRight=3;rotatable=0;labelPosition=right;points=[];portConstraint=eastwest;strokeColor=inherit;" vertex="1" parent="_zV6KzTDaz2BEm2wTDxe-102">
          <mxGeometry y="26" width="140" height="8" as="geometry" />
        </mxCell>
        <mxCell id="_zV6KzTDaz2BEm2wTDxe-104" value="" style="endArrow=diamondThin;endFill=0;endSize=24;html=1;rounded=0;" edge="1" parent="_zV6KzTDaz2BEm2wTDxe-70" source="_zV6KzTDaz2BEm2wTDxe-100" target="_zV6KzTDaz2BEm2wTDxe-79">
          <mxGeometry width="160" relative="1" as="geometry">
            <mxPoint x="340" y="110" as="sourcePoint" />
            <mxPoint x="150" y="131" as="targetPoint" />
          </mxGeometry>
        </mxCell>
        <mxCell id="_zV6KzTDaz2BEm2wTDxe-105" value="" style="endArrow=block;endSize=16;endFill=0;html=1;rounded=0;" edge="1" parent="_zV6KzTDaz2BEm2wTDxe-70" source="_zV6KzTDaz2BEm2wTDxe-102" target="_zV6KzTDaz2BEm2wTDxe-100">
          <mxGeometry width="160" relative="1" as="geometry">
            <mxPoint x="105" y="170" as="sourcePoint" />
            <mxPoint x="105" y="104" as="targetPoint" />
            <Array as="points" />
          </mxGeometry>
        </mxCell>
        <mxCell id="_zV6KzTDaz2BEm2wTDxe-95" value="" style="endArrow=diamondThin;endFill=0;endSize=24;html=1;rounded=0;" edge="1" parent="_zV6KzTDaz2BEm2wTDxe-26" source="_zV6KzTDaz2BEm2wTDxe-77" target="_zV6KzTDaz2BEm2wTDxe-73">
          <mxGeometry width="160" relative="1" as="geometry">
            <mxPoint x="330" y="150" as="sourcePoint" />
            <mxPoint x="490" y="150" as="targetPoint" />
          </mxGeometry>
        </mxCell>
        <mxCell id="_zV6KzTDaz2BEm2wTDxe-96" value="" style="endArrow=diamondThin;endFill=0;endSize=24;html=1;rounded=0;" edge="1" parent="_zV6KzTDaz2BEm2wTDxe-26" source="_zV6KzTDaz2BEm2wTDxe-85" target="_zV6KzTDaz2BEm2wTDxe-79">
          <mxGeometry width="160" relative="1" as="geometry">
            <mxPoint x="515" y="106" as="sourcePoint" />
            <mxPoint x="245" y="131" as="targetPoint" />
          </mxGeometry>
        </mxCell>
        <mxCell id="_zV6KzTDaz2BEm2wTDxe-97" value="" style="endArrow=diamondThin;endFill=0;endSize=24;html=1;rounded=0;" edge="1" parent="_zV6KzTDaz2BEm2wTDxe-26" source="_zV6KzTDaz2BEm2wTDxe-87" target="_zV6KzTDaz2BEm2wTDxe-79">
          <mxGeometry width="160" relative="1" as="geometry">
            <mxPoint x="450" y="310" as="sourcePoint" />
            <mxPoint x="561" y="230" as="targetPoint" />
          </mxGeometry>
        </mxCell>
        <mxCell id="_zV6KzTDaz2BEm2wTDxe-108" value="" style="endArrow=diamondThin;endFill=0;endSize=24;html=1;rounded=0;" edge="1" parent="_zV6KzTDaz2BEm2wTDxe-26" source="_zV6KzTDaz2BEm2wTDxe-106" target="_zV6KzTDaz2BEm2wTDxe-102">
          <mxGeometry width="160" relative="1" as="geometry">
            <mxPoint x="374" y="310" as="sourcePoint" />
            <mxPoint x="433" y="224" as="targetPoint" />
          </mxGeometry>
        </mxCell>
        <mxCell id="_zV6KzTDaz2BEm2wTDxe-149" value="exchange pkg" style="shape=umlFrame;whiteSpace=wrap;html=1;pointerEvents=0;recursiveResize=0;container=1;collapsible=0;width=160;" vertex="1" parent="1">
          <mxGeometry y="1290" width="920" height="590" as="geometry" />
        </mxCell>
        <mxCell id="_zV6KzTDaz2BEm2wTDxe-157" value="controller" style="shape=folder;fontStyle=1;tabWidth=110;tabHeight=30;tabPosition=left;html=1;boundedLbl=1;labelInHeader=1;container=1;collapsible=0;recursiveResize=0;whiteSpace=wrap;" vertex="1" parent="_zV6KzTDaz2BEm2wTDxe-149">
          <mxGeometry x="20" y="60" width="170" height="100" as="geometry" />
        </mxCell>
        <mxCell id="_zV6KzTDaz2BEm2wTDxe-158" value="ExchangeController" style="swimlane;fontStyle=1;align=center;verticalAlign=top;childLayout=stackLayout;horizontal=1;startSize=26;horizontalStack=0;resizeParent=1;resizeParentMax=0;resizeLast=0;collapsible=1;marginBottom=0;whiteSpace=wrap;html=1;" vertex="1" parent="_zV6KzTDaz2BEm2wTDxe-157">
          <mxGeometry x="15" y="50" width="140" height="34" as="geometry" />
        </mxCell>
        <mxCell id="_zV6KzTDaz2BEm2wTDxe-159" value="" style="line;strokeWidth=1;fillColor=none;align=left;verticalAlign=middle;spacingTop=-1;spacingLeft=3;spacingRight=3;rotatable=0;labelPosition=right;points=[];portConstraint=eastwest;strokeColor=inherit;" vertex="1" parent="_zV6KzTDaz2BEm2wTDxe-158">
          <mxGeometry y="26" width="140" height="8" as="geometry" />
        </mxCell>
        <mxCell id="_zV6KzTDaz2BEm2wTDxe-160" value="repo" style="shape=folder;fontStyle=1;tabWidth=110;tabHeight=30;tabPosition=left;html=1;boundedLbl=1;labelInHeader=1;container=1;collapsible=0;recursiveResize=0;whiteSpace=wrap;" vertex="1" parent="_zV6KzTDaz2BEm2wTDxe-149">
          <mxGeometry x="80" y="320" width="760" height="240" as="geometry" />
        </mxCell>
        <mxCell id="_zV6KzTDaz2BEm2wTDxe-161" value="&lt;span style=&quot;font-weight: normal;&quot;&gt;&amp;lt;&amp;lt;interface&amp;gt;&amp;gt;&lt;/span&gt;&lt;br&gt;JpaRepository" style="swimlane;fontStyle=1;align=center;verticalAlign=top;childLayout=stackLayout;horizontal=1;startSize=40;horizontalStack=0;resizeParent=1;resizeParentMax=0;resizeLast=0;collapsible=1;marginBottom=0;whiteSpace=wrap;html=1;" vertex="1" parent="_zV6KzTDaz2BEm2wTDxe-160">
          <mxGeometry x="250" y="180" width="140" height="48" as="geometry" />
        </mxCell>
        <mxCell id="_zV6KzTDaz2BEm2wTDxe-162" value="" style="line;strokeWidth=1;fillColor=none;align=left;verticalAlign=middle;spacingTop=-1;spacingLeft=3;spacingRight=3;rotatable=0;labelPosition=right;points=[];portConstraint=eastwest;strokeColor=inherit;" vertex="1" parent="_zV6KzTDaz2BEm2wTDxe-161">
          <mxGeometry y="40" width="140" height="8" as="geometry" />
        </mxCell>
        <mxCell id="_zV6KzTDaz2BEm2wTDxe-163" value="&lt;span style=&quot;font-weight: normal;&quot;&gt;&amp;lt;&amp;lt;interface&amp;gt;&amp;gt;&lt;/span&gt;&lt;br&gt;ExchangeTypeRepo" style="swimlane;fontStyle=1;align=center;verticalAlign=top;childLayout=stackLayout;horizontal=1;startSize=40;horizontalStack=0;resizeParent=1;resizeParentMax=0;resizeLast=0;collapsible=1;marginBottom=0;whiteSpace=wrap;html=1;" vertex="1" parent="_zV6KzTDaz2BEm2wTDxe-160">
          <mxGeometry x="150" y="40" width="130" height="48" as="geometry" />
        </mxCell>
        <mxCell id="_zV6KzTDaz2BEm2wTDxe-164" value="" style="line;strokeWidth=1;fillColor=none;align=left;verticalAlign=middle;spacingTop=-1;spacingLeft=3;spacingRight=3;rotatable=0;labelPosition=right;points=[];portConstraint=eastwest;strokeColor=inherit;" vertex="1" parent="_zV6KzTDaz2BEm2wTDxe-163">
          <mxGeometry y="40" width="130" height="8" as="geometry" />
        </mxCell>
        <mxCell id="_zV6KzTDaz2BEm2wTDxe-165" value="&lt;span style=&quot;font-weight: normal;&quot;&gt;&amp;lt;&amp;lt;interface&amp;gt;&amp;gt;&lt;/span&gt;&lt;br&gt;ExchangeRepo" style="swimlane;fontStyle=1;align=center;verticalAlign=top;childLayout=stackLayout;horizontal=1;startSize=40;horizontalStack=0;resizeParent=1;resizeParentMax=0;resizeLast=0;collapsible=1;marginBottom=0;whiteSpace=wrap;html=1;" vertex="1" parent="_zV6KzTDaz2BEm2wTDxe-160">
          <mxGeometry x="10" y="40" width="120" height="48" as="geometry" />
        </mxCell>
        <mxCell id="_zV6KzTDaz2BEm2wTDxe-166" value="" style="line;strokeWidth=1;fillColor=none;align=left;verticalAlign=middle;spacingTop=-1;spacingLeft=3;spacingRight=3;rotatable=0;labelPosition=right;points=[];portConstraint=eastwest;strokeColor=inherit;" vertex="1" parent="_zV6KzTDaz2BEm2wTDxe-165">
          <mxGeometry y="40" width="120" height="8" as="geometry" />
        </mxCell>
        <mxCell id="_zV6KzTDaz2BEm2wTDxe-167" value="" style="endArrow=block;endSize=16;endFill=0;html=1;rounded=0;" edge="1" parent="_zV6KzTDaz2BEm2wTDxe-160" source="_zV6KzTDaz2BEm2wTDxe-163" target="_zV6KzTDaz2BEm2wTDxe-161">
          <mxGeometry width="160" relative="1" as="geometry">
            <mxPoint x="445" y="-64" as="sourcePoint" />
            <mxPoint x="445" y="-136" as="targetPoint" />
          </mxGeometry>
        </mxCell>
        <mxCell id="_zV6KzTDaz2BEm2wTDxe-168" value="" style="endArrow=block;endSize=16;endFill=0;html=1;rounded=0;" edge="1" parent="_zV6KzTDaz2BEm2wTDxe-160" source="_zV6KzTDaz2BEm2wTDxe-165" target="_zV6KzTDaz2BEm2wTDxe-161">
          <mxGeometry width="160" relative="1" as="geometry">
            <mxPoint x="256" y="98" as="sourcePoint" />
            <mxPoint x="211" y="150" as="targetPoint" />
          </mxGeometry>
        </mxCell>
        <mxCell id="_zV6KzTDaz2BEm2wTDxe-169" value="&lt;span style=&quot;font-weight: normal;&quot;&gt;&amp;lt;&amp;lt;interface&amp;gt;&amp;gt;&lt;/span&gt;&lt;br&gt;WalletRepository" style="swimlane;fontStyle=1;align=center;verticalAlign=top;childLayout=stackLayout;horizontal=1;startSize=40;horizontalStack=0;resizeParent=1;resizeParentMax=0;resizeLast=0;collapsible=1;marginBottom=0;whiteSpace=wrap;html=1;" vertex="1" parent="_zV6KzTDaz2BEm2wTDxe-160">
          <mxGeometry x="290" y="40" width="120" height="48" as="geometry" />
        </mxCell>
        <mxCell id="_zV6KzTDaz2BEm2wTDxe-170" value="" style="line;strokeWidth=1;fillColor=none;align=left;verticalAlign=middle;spacingTop=-1;spacingLeft=3;spacingRight=3;rotatable=0;labelPosition=right;points=[];portConstraint=eastwest;strokeColor=inherit;" vertex="1" parent="_zV6KzTDaz2BEm2wTDxe-169">
          <mxGeometry y="40" width="120" height="8" as="geometry" />
        </mxCell>
        <mxCell id="_zV6KzTDaz2BEm2wTDxe-171" value="" style="endArrow=block;endSize=16;endFill=0;html=1;rounded=0;" edge="1" parent="_zV6KzTDaz2BEm2wTDxe-160" source="_zV6KzTDaz2BEm2wTDxe-169" target="_zV6KzTDaz2BEm2wTDxe-161">
          <mxGeometry width="160" relative="1" as="geometry">
            <mxPoint x="256" y="98" as="sourcePoint" />
            <mxPoint x="211" y="150" as="targetPoint" />
          </mxGeometry>
        </mxCell>
        <mxCell id="_zV6KzTDaz2BEm2wTDxe-194" value="&lt;span style=&quot;font-weight: normal;&quot;&gt;&amp;lt;&amp;lt;interface&amp;gt;&amp;gt;&lt;/span&gt;&lt;br&gt;SavingRepo" style="swimlane;fontStyle=1;align=center;verticalAlign=top;childLayout=stackLayout;horizontal=1;startSize=40;horizontalStack=0;resizeParent=1;resizeParentMax=0;resizeLast=0;collapsible=1;marginBottom=0;whiteSpace=wrap;html=1;" vertex="1" parent="_zV6KzTDaz2BEm2wTDxe-160">
          <mxGeometry x="420" y="60" width="120" height="48" as="geometry" />
        </mxCell>
        <mxCell id="_zV6KzTDaz2BEm2wTDxe-195" value="" style="line;strokeWidth=1;fillColor=none;align=left;verticalAlign=middle;spacingTop=-1;spacingLeft=3;spacingRight=3;rotatable=0;labelPosition=right;points=[];portConstraint=eastwest;strokeColor=inherit;" vertex="1" parent="_zV6KzTDaz2BEm2wTDxe-194">
          <mxGeometry y="40" width="120" height="8" as="geometry" />
        </mxCell>
        <mxCell id="_zV6KzTDaz2BEm2wTDxe-197" value="" style="endArrow=block;endSize=16;endFill=0;html=1;rounded=0;" edge="1" parent="_zV6KzTDaz2BEm2wTDxe-160" source="_zV6KzTDaz2BEm2wTDxe-194" target="_zV6KzTDaz2BEm2wTDxe-161">
          <mxGeometry width="160" relative="1" as="geometry">
            <mxPoint x="425" y="108" as="sourcePoint" />
            <mxPoint x="352" y="190" as="targetPoint" />
          </mxGeometry>
        </mxCell>
        <mxCell id="_zV6KzTDaz2BEm2wTDxe-204" value="&lt;span style=&quot;font-weight: normal;&quot;&gt;&amp;lt;&amp;lt;interface&amp;gt;&amp;gt;&lt;/span&gt;&lt;br&gt;BudgetRepo" style="swimlane;fontStyle=1;align=center;verticalAlign=top;childLayout=stackLayout;horizontal=1;startSize=40;horizontalStack=0;resizeParent=1;resizeParentMax=0;resizeLast=0;collapsible=1;marginBottom=0;whiteSpace=wrap;html=1;" vertex="1" parent="_zV6KzTDaz2BEm2wTDxe-160">
          <mxGeometry x="450" y="120" width="120" height="48" as="geometry" />
        </mxCell>
        <mxCell id="_zV6KzTDaz2BEm2wTDxe-205" value="" style="line;strokeWidth=1;fillColor=none;align=left;verticalAlign=middle;spacingTop=-1;spacingLeft=3;spacingRight=3;rotatable=0;labelPosition=right;points=[];portConstraint=eastwest;strokeColor=inherit;" vertex="1" parent="_zV6KzTDaz2BEm2wTDxe-204">
          <mxGeometry y="40" width="120" height="8" as="geometry" />
        </mxCell>
        <mxCell id="_zV6KzTDaz2BEm2wTDxe-206" value="" style="endArrow=block;endSize=16;endFill=0;html=1;rounded=0;" edge="1" parent="_zV6KzTDaz2BEm2wTDxe-160" source="_zV6KzTDaz2BEm2wTDxe-204" target="_zV6KzTDaz2BEm2wTDxe-161">
          <mxGeometry width="160" relative="1" as="geometry">
            <mxPoint x="458" y="118" as="sourcePoint" />
            <mxPoint x="362" y="190" as="targetPoint" />
          </mxGeometry>
        </mxCell>
        <mxCell id="_zV6KzTDaz2BEm2wTDxe-214" value="" style="endArrow=block;endSize=16;endFill=0;html=1;rounded=0;" edge="1" parent="_zV6KzTDaz2BEm2wTDxe-160" source="_zV6KzTDaz2BEm2wTDxe-222" target="_zV6KzTDaz2BEm2wTDxe-161">
          <mxGeometry width="160" relative="1" as="geometry">
            <mxPoint x="570" y="199.38461538461524" as="sourcePoint" />
            <mxPoint x="470" y="240" as="targetPoint" />
          </mxGeometry>
        </mxCell>
        <mxCell id="_zV6KzTDaz2BEm2wTDxe-222" value="&lt;span style=&quot;font-weight: normal;&quot;&gt;&amp;lt;&amp;lt;interface&amp;gt;&amp;gt;&lt;/span&gt;&lt;br&gt;LoanRepo" style="swimlane;fontStyle=1;align=center;verticalAlign=top;childLayout=stackLayout;horizontal=1;startSize=40;horizontalStack=0;resizeParent=1;resizeParentMax=0;resizeLast=0;collapsible=1;marginBottom=0;whiteSpace=wrap;html=1;" vertex="1" parent="_zV6KzTDaz2BEm2wTDxe-160">
          <mxGeometry x="630" y="180" width="120" height="48" as="geometry" />
        </mxCell>
        <mxCell id="_zV6KzTDaz2BEm2wTDxe-223" value="" style="line;strokeWidth=1;fillColor=none;align=left;verticalAlign=middle;spacingTop=-1;spacingLeft=3;spacingRight=3;rotatable=0;labelPosition=right;points=[];portConstraint=eastwest;strokeColor=inherit;" vertex="1" parent="_zV6KzTDaz2BEm2wTDxe-222">
          <mxGeometry y="40" width="120" height="8" as="geometry" />
        </mxCell>
        <mxCell id="_zV6KzTDaz2BEm2wTDxe-224" value="&lt;span style=&quot;font-weight: normal;&quot;&gt;&amp;lt;&amp;lt;interface&amp;gt;&amp;gt;&lt;/span&gt;&lt;br&gt;DebtRepo" style="swimlane;fontStyle=1;align=center;verticalAlign=top;childLayout=stackLayout;horizontal=1;startSize=40;horizontalStack=0;resizeParent=1;resizeParentMax=0;resizeLast=0;collapsible=1;marginBottom=0;whiteSpace=wrap;html=1;" vertex="1" parent="_zV6KzTDaz2BEm2wTDxe-160">
          <mxGeometry x="630" y="120" width="120" height="48" as="geometry" />
        </mxCell>
        <mxCell id="_zV6KzTDaz2BEm2wTDxe-225" value="" style="line;strokeWidth=1;fillColor=none;align=left;verticalAlign=middle;spacingTop=-1;spacingLeft=3;spacingRight=3;rotatable=0;labelPosition=right;points=[];portConstraint=eastwest;strokeColor=inherit;" vertex="1" parent="_zV6KzTDaz2BEm2wTDxe-224">
          <mxGeometry y="40" width="120" height="8" as="geometry" />
        </mxCell>
        <mxCell id="_zV6KzTDaz2BEm2wTDxe-227" value="" style="endArrow=block;endSize=16;endFill=0;html=1;rounded=0;" edge="1" parent="_zV6KzTDaz2BEm2wTDxe-160" source="_zV6KzTDaz2BEm2wTDxe-224" target="_zV6KzTDaz2BEm2wTDxe-161">
          <mxGeometry width="160" relative="1" as="geometry">
            <mxPoint x="640" y="214" as="sourcePoint" />
            <mxPoint x="400" y="214" as="targetPoint" />
            <Array as="points">
              <mxPoint x="610" y="170" />
            </Array>
          </mxGeometry>
        </mxCell>
        <mxCell id="_zV6KzTDaz2BEm2wTDxe-172" value="service" style="shape=folder;fontStyle=1;tabWidth=110;tabHeight=30;tabPosition=left;html=1;boundedLbl=1;labelInHeader=1;container=1;collapsible=0;recursiveResize=0;whiteSpace=wrap;" vertex="1" parent="_zV6KzTDaz2BEm2wTDxe-149">
          <mxGeometry x="240" y="20" width="670" height="290" as="geometry" />
        </mxCell>
        <mxCell id="_zV6KzTDaz2BEm2wTDxe-173" value="&lt;span style=&quot;font-weight: normal;&quot;&gt;&amp;lt;&amp;lt;interface&amp;gt;&amp;gt;&lt;/span&gt;&lt;br&gt;ExchangeService" style="swimlane;fontStyle=1;align=center;verticalAlign=top;childLayout=stackLayout;horizontal=1;startSize=40;horizontalStack=0;resizeParent=1;resizeParentMax=0;resizeLast=0;collapsible=1;marginBottom=0;whiteSpace=wrap;html=1;" vertex="1" parent="_zV6KzTDaz2BEm2wTDxe-172">
          <mxGeometry x="25" y="46" width="140" height="48" as="geometry" />
        </mxCell>
        <mxCell id="_zV6KzTDaz2BEm2wTDxe-174" value="" style="line;strokeWidth=1;fillColor=none;align=left;verticalAlign=middle;spacingTop=-1;spacingLeft=3;spacingRight=3;rotatable=0;labelPosition=right;points=[];portConstraint=eastwest;strokeColor=inherit;" vertex="1" parent="_zV6KzTDaz2BEm2wTDxe-173">
          <mxGeometry y="40" width="140" height="8" as="geometry" />
        </mxCell>
        <mxCell id="_zV6KzTDaz2BEm2wTDxe-175" value="ExchangeServiceImpl" style="swimlane;fontStyle=1;align=center;verticalAlign=top;childLayout=stackLayout;horizontal=1;startSize=26;horizontalStack=0;resizeParent=1;resizeParentMax=0;resizeLast=0;collapsible=1;marginBottom=0;whiteSpace=wrap;html=1;" vertex="1" parent="_zV6KzTDaz2BEm2wTDxe-172">
          <mxGeometry x="25" y="180" width="140" height="34" as="geometry" />
        </mxCell>
        <mxCell id="_zV6KzTDaz2BEm2wTDxe-176" value="" style="line;strokeWidth=1;fillColor=none;align=left;verticalAlign=middle;spacingTop=-1;spacingLeft=3;spacingRight=3;rotatable=0;labelPosition=right;points=[];portConstraint=eastwest;strokeColor=inherit;" vertex="1" parent="_zV6KzTDaz2BEm2wTDxe-175">
          <mxGeometry y="26" width="140" height="8" as="geometry" />
        </mxCell>
        <mxCell id="_zV6KzTDaz2BEm2wTDxe-177" value="" style="endArrow=block;endSize=16;endFill=0;html=1;rounded=0;" edge="1" parent="_zV6KzTDaz2BEm2wTDxe-172" source="_zV6KzTDaz2BEm2wTDxe-175" target="_zV6KzTDaz2BEm2wTDxe-173">
          <mxGeometry width="160" relative="1" as="geometry">
            <mxPoint x="-150" y="130" as="sourcePoint" />
            <mxPoint x="10" y="130" as="targetPoint" />
          </mxGeometry>
        </mxCell>
        <mxCell id="_zV6KzTDaz2BEm2wTDxe-178" value="&lt;span style=&quot;font-weight: normal;&quot;&gt;&amp;lt;&amp;lt;interface&amp;gt;&amp;gt;&lt;/span&gt;&lt;br&gt;WalletService" style="swimlane;fontStyle=1;align=center;verticalAlign=top;childLayout=stackLayout;horizontal=1;startSize=40;horizontalStack=0;resizeParent=1;resizeParentMax=0;resizeLast=0;collapsible=1;marginBottom=0;whiteSpace=wrap;html=1;" vertex="1" parent="_zV6KzTDaz2BEm2wTDxe-172">
          <mxGeometry x="200" y="168" width="110" height="48" as="geometry" />
        </mxCell>
        <mxCell id="_zV6KzTDaz2BEm2wTDxe-179" value="" style="line;strokeWidth=1;fillColor=none;align=left;verticalAlign=middle;spacingTop=-1;spacingLeft=3;spacingRight=3;rotatable=0;labelPosition=right;points=[];portConstraint=eastwest;strokeColor=inherit;" vertex="1" parent="_zV6KzTDaz2BEm2wTDxe-178">
          <mxGeometry y="40" width="110" height="8" as="geometry" />
        </mxCell>
        <mxCell id="_zV6KzTDaz2BEm2wTDxe-180" value="WalletServiceImpl" style="swimlane;fontStyle=1;align=center;verticalAlign=top;childLayout=stackLayout;horizontal=1;startSize=26;horizontalStack=0;resizeParent=1;resizeParentMax=0;resizeLast=0;collapsible=1;marginBottom=0;whiteSpace=wrap;html=1;" vertex="1" parent="_zV6KzTDaz2BEm2wTDxe-172">
          <mxGeometry x="190" y="250" width="120" height="34" as="geometry" />
        </mxCell>
        <mxCell id="_zV6KzTDaz2BEm2wTDxe-181" value="" style="line;strokeWidth=1;fillColor=none;align=left;verticalAlign=middle;spacingTop=-1;spacingLeft=3;spacingRight=3;rotatable=0;labelPosition=right;points=[];portConstraint=eastwest;strokeColor=inherit;" vertex="1" parent="_zV6KzTDaz2BEm2wTDxe-180">
          <mxGeometry y="26" width="120" height="8" as="geometry" />
        </mxCell>
        <mxCell id="_zV6KzTDaz2BEm2wTDxe-182" value="" style="endArrow=diamondThin;endFill=0;endSize=24;html=1;rounded=0;" edge="1" parent="_zV6KzTDaz2BEm2wTDxe-172" source="_zV6KzTDaz2BEm2wTDxe-178" target="_zV6KzTDaz2BEm2wTDxe-175">
          <mxGeometry width="160" relative="1" as="geometry">
            <mxPoint x="340" y="110" as="sourcePoint" />
            <mxPoint x="150" y="131" as="targetPoint" />
          </mxGeometry>
        </mxCell>
        <mxCell id="_zV6KzTDaz2BEm2wTDxe-183" value="" style="endArrow=block;endSize=16;endFill=0;html=1;rounded=0;" edge="1" parent="_zV6KzTDaz2BEm2wTDxe-172" source="_zV6KzTDaz2BEm2wTDxe-180" target="_zV6KzTDaz2BEm2wTDxe-178">
          <mxGeometry width="160" relative="1" as="geometry">
            <mxPoint x="105" y="170" as="sourcePoint" />
            <mxPoint x="105" y="104" as="targetPoint" />
            <Array as="points" />
          </mxGeometry>
        </mxCell>
        <mxCell id="_zV6KzTDaz2BEm2wTDxe-188" value="&lt;span style=&quot;font-weight: normal;&quot;&gt;&amp;lt;&amp;lt;interface&amp;gt;&amp;gt;&lt;/span&gt;&lt;br&gt;SavingService" style="swimlane;fontStyle=1;align=center;verticalAlign=top;childLayout=stackLayout;horizontal=1;startSize=40;horizontalStack=0;resizeParent=1;resizeParentMax=0;resizeLast=0;collapsible=1;marginBottom=0;whiteSpace=wrap;html=1;" vertex="1" parent="_zV6KzTDaz2BEm2wTDxe-172">
          <mxGeometry x="320" y="150" width="100" height="48" as="geometry" />
        </mxCell>
        <mxCell id="_zV6KzTDaz2BEm2wTDxe-189" value="" style="line;strokeWidth=1;fillColor=none;align=left;verticalAlign=middle;spacingTop=-1;spacingLeft=3;spacingRight=3;rotatable=0;labelPosition=right;points=[];portConstraint=eastwest;strokeColor=inherit;" vertex="1" parent="_zV6KzTDaz2BEm2wTDxe-188">
          <mxGeometry y="40" width="100" height="8" as="geometry" />
        </mxCell>
        <mxCell id="_zV6KzTDaz2BEm2wTDxe-190" value="SavingServiceImpl" style="swimlane;fontStyle=1;align=center;verticalAlign=top;childLayout=stackLayout;horizontal=1;startSize=26;horizontalStack=0;resizeParent=1;resizeParentMax=0;resizeLast=0;collapsible=1;marginBottom=0;whiteSpace=wrap;html=1;" vertex="1" parent="_zV6KzTDaz2BEm2wTDxe-172">
          <mxGeometry x="320" y="250" width="130" height="34" as="geometry" />
        </mxCell>
        <mxCell id="_zV6KzTDaz2BEm2wTDxe-191" value="" style="line;strokeWidth=1;fillColor=none;align=left;verticalAlign=middle;spacingTop=-1;spacingLeft=3;spacingRight=3;rotatable=0;labelPosition=right;points=[];portConstraint=eastwest;strokeColor=inherit;" vertex="1" parent="_zV6KzTDaz2BEm2wTDxe-190">
          <mxGeometry y="26" width="130" height="8" as="geometry" />
        </mxCell>
        <mxCell id="_zV6KzTDaz2BEm2wTDxe-192" value="" style="endArrow=block;endSize=16;endFill=0;html=1;rounded=0;" edge="1" parent="_zV6KzTDaz2BEm2wTDxe-172" source="_zV6KzTDaz2BEm2wTDxe-190" target="_zV6KzTDaz2BEm2wTDxe-188">
          <mxGeometry width="160" relative="1" as="geometry">
            <mxPoint x="255" y="170" as="sourcePoint" />
            <mxPoint x="255" y="104" as="targetPoint" />
            <Array as="points" />
          </mxGeometry>
        </mxCell>
        <mxCell id="_zV6KzTDaz2BEm2wTDxe-193" value="" style="endArrow=diamondThin;endFill=0;endSize=24;html=1;rounded=0;" edge="1" parent="_zV6KzTDaz2BEm2wTDxe-172" source="_zV6KzTDaz2BEm2wTDxe-188" target="_zV6KzTDaz2BEm2wTDxe-175">
          <mxGeometry width="160" relative="1" as="geometry">
            <mxPoint x="233" y="104" as="sourcePoint" />
            <mxPoint x="131" y="170" as="targetPoint" />
            <Array as="points">
              <mxPoint x="270" y="150" />
              <mxPoint x="190" y="150" />
            </Array>
          </mxGeometry>
        </mxCell>
        <mxCell id="_zV6KzTDaz2BEm2wTDxe-198" value="&lt;span style=&quot;font-weight: normal;&quot;&gt;&amp;lt;&amp;lt;interface&amp;gt;&amp;gt;&lt;/span&gt;&lt;br&gt;BudgetService" style="swimlane;fontStyle=1;align=center;verticalAlign=top;childLayout=stackLayout;horizontal=1;startSize=40;horizontalStack=0;resizeParent=1;resizeParentMax=0;resizeLast=0;collapsible=1;marginBottom=0;whiteSpace=wrap;html=1;" vertex="1" parent="_zV6KzTDaz2BEm2wTDxe-172">
          <mxGeometry x="430" y="121" width="110" height="48" as="geometry" />
        </mxCell>
        <mxCell id="_zV6KzTDaz2BEm2wTDxe-199" value="" style="line;strokeWidth=1;fillColor=none;align=left;verticalAlign=middle;spacingTop=-1;spacingLeft=3;spacingRight=3;rotatable=0;labelPosition=right;points=[];portConstraint=eastwest;strokeColor=inherit;" vertex="1" parent="_zV6KzTDaz2BEm2wTDxe-198">
          <mxGeometry y="40" width="110" height="8" as="geometry" />
        </mxCell>
        <mxCell id="_zV6KzTDaz2BEm2wTDxe-200" value="BudgetServiceImpl" style="swimlane;fontStyle=1;align=center;verticalAlign=top;childLayout=stackLayout;horizontal=1;startSize=26;horizontalStack=0;resizeParent=1;resizeParentMax=0;resizeLast=0;collapsible=1;marginBottom=0;whiteSpace=wrap;html=1;" vertex="1" parent="_zV6KzTDaz2BEm2wTDxe-172">
          <mxGeometry x="457" y="250" width="130" height="34" as="geometry" />
        </mxCell>
        <mxCell id="_zV6KzTDaz2BEm2wTDxe-201" value="" style="line;strokeWidth=1;fillColor=none;align=left;verticalAlign=middle;spacingTop=-1;spacingLeft=3;spacingRight=3;rotatable=0;labelPosition=right;points=[];portConstraint=eastwest;strokeColor=inherit;" vertex="1" parent="_zV6KzTDaz2BEm2wTDxe-200">
          <mxGeometry y="26" width="130" height="8" as="geometry" />
        </mxCell>
        <mxCell id="_zV6KzTDaz2BEm2wTDxe-202" value="" style="endArrow=block;endSize=16;endFill=0;html=1;rounded=0;" edge="1" parent="_zV6KzTDaz2BEm2wTDxe-172" source="_zV6KzTDaz2BEm2wTDxe-200" target="_zV6KzTDaz2BEm2wTDxe-198">
          <mxGeometry width="160" relative="1" as="geometry">
            <mxPoint x="395" y="170" as="sourcePoint" />
            <mxPoint x="395" y="104" as="targetPoint" />
            <Array as="points" />
          </mxGeometry>
        </mxCell>
        <mxCell id="_zV6KzTDaz2BEm2wTDxe-203" value="" style="endArrow=diamondThin;endFill=0;endSize=24;html=1;rounded=0;" edge="1" parent="_zV6KzTDaz2BEm2wTDxe-172" source="_zV6KzTDaz2BEm2wTDxe-198" target="_zV6KzTDaz2BEm2wTDxe-175">
          <mxGeometry width="160" relative="1" as="geometry">
            <mxPoint x="330" y="176" as="sourcePoint" />
            <mxPoint x="139" y="190" as="targetPoint" />
            <Array as="points">
              <mxPoint x="180" y="140" />
            </Array>
          </mxGeometry>
        </mxCell>
        <mxCell id="_zV6KzTDaz2BEm2wTDxe-207" value="&lt;span style=&quot;font-weight: normal;&quot;&gt;&amp;lt;&amp;lt;interface&amp;gt;&amp;gt;&lt;/span&gt;&lt;br&gt;LoanAndDebtService" style="swimlane;fontStyle=1;align=center;verticalAlign=top;childLayout=stackLayout;horizontal=1;startSize=40;horizontalStack=0;resizeParent=1;resizeParentMax=0;resizeLast=0;collapsible=1;marginBottom=0;whiteSpace=wrap;html=1;" vertex="1" parent="_zV6KzTDaz2BEm2wTDxe-172">
          <mxGeometry x="480" y="60" width="130" height="48" as="geometry" />
        </mxCell>
        <mxCell id="_zV6KzTDaz2BEm2wTDxe-208" value="" style="line;strokeWidth=1;fillColor=none;align=left;verticalAlign=middle;spacingTop=-1;spacingLeft=3;spacingRight=3;rotatable=0;labelPosition=right;points=[];portConstraint=eastwest;strokeColor=inherit;" vertex="1" parent="_zV6KzTDaz2BEm2wTDxe-207">
          <mxGeometry y="40" width="130" height="8" as="geometry" />
        </mxCell>
        <mxCell id="_zV6KzTDaz2BEm2wTDxe-209" value="LoanAndDebtServiceImpl" style="swimlane;fontStyle=1;align=center;verticalAlign=top;childLayout=stackLayout;horizontal=1;startSize=26;horizontalStack=0;resizeParent=1;resizeParentMax=0;resizeLast=0;collapsible=1;marginBottom=0;whiteSpace=wrap;html=1;" vertex="1" parent="_zV6KzTDaz2BEm2wTDxe-172">
          <mxGeometry x="510" y="209" width="157" height="34" as="geometry" />
        </mxCell>
        <mxCell id="_zV6KzTDaz2BEm2wTDxe-210" value="" style="line;strokeWidth=1;fillColor=none;align=left;verticalAlign=middle;spacingTop=-1;spacingLeft=3;spacingRight=3;rotatable=0;labelPosition=right;points=[];portConstraint=eastwest;strokeColor=inherit;" vertex="1" parent="_zV6KzTDaz2BEm2wTDxe-209">
          <mxGeometry y="26" width="157" height="8" as="geometry" />
        </mxCell>
        <mxCell id="_zV6KzTDaz2BEm2wTDxe-211" value="" style="endArrow=block;endSize=16;endFill=0;html=1;rounded=0;" edge="1" parent="_zV6KzTDaz2BEm2wTDxe-172" source="_zV6KzTDaz2BEm2wTDxe-209" target="_zV6KzTDaz2BEm2wTDxe-207">
          <mxGeometry width="160" relative="1" as="geometry">
            <mxPoint x="475" y="129" as="sourcePoint" />
            <mxPoint x="475" y="63" as="targetPoint" />
            <Array as="points" />
          </mxGeometry>
        </mxCell>
        <mxCell id="_zV6KzTDaz2BEm2wTDxe-217" value="" style="endArrow=diamondThin;endFill=0;endSize=24;html=1;rounded=0;" edge="1" parent="_zV6KzTDaz2BEm2wTDxe-172" source="_zV6KzTDaz2BEm2wTDxe-207" target="_zV6KzTDaz2BEm2wTDxe-175">
          <mxGeometry width="160" relative="1" as="geometry">
            <mxPoint x="440" y="154" as="sourcePoint" />
            <mxPoint x="130" y="190" as="targetPoint" />
            <Array as="points">
              <mxPoint x="230" y="100" />
            </Array>
          </mxGeometry>
        </mxCell>
        <mxCell id="_zV6KzTDaz2BEm2wTDxe-184" value="" style="endArrow=diamondThin;endFill=0;endSize=24;html=1;rounded=0;" edge="1" parent="_zV6KzTDaz2BEm2wTDxe-149" source="_zV6KzTDaz2BEm2wTDxe-173" target="_zV6KzTDaz2BEm2wTDxe-158">
          <mxGeometry width="160" relative="1" as="geometry">
            <mxPoint x="330" y="150" as="sourcePoint" />
            <mxPoint x="490" y="150" as="targetPoint" />
          </mxGeometry>
        </mxCell>
        <mxCell id="_zV6KzTDaz2BEm2wTDxe-185" value="" style="endArrow=diamondThin;endFill=0;endSize=24;html=1;rounded=0;" edge="1" parent="_zV6KzTDaz2BEm2wTDxe-149" source="_zV6KzTDaz2BEm2wTDxe-163" target="_zV6KzTDaz2BEm2wTDxe-175">
          <mxGeometry width="160" relative="1" as="geometry">
            <mxPoint x="515" y="106" as="sourcePoint" />
            <mxPoint x="245" y="131" as="targetPoint" />
          </mxGeometry>
        </mxCell>
        <mxCell id="_zV6KzTDaz2BEm2wTDxe-186" value="" style="endArrow=diamondThin;endFill=0;endSize=24;html=1;rounded=0;" edge="1" parent="_zV6KzTDaz2BEm2wTDxe-149" source="_zV6KzTDaz2BEm2wTDxe-165" target="_zV6KzTDaz2BEm2wTDxe-175">
          <mxGeometry width="160" relative="1" as="geometry">
            <mxPoint x="450" y="310" as="sourcePoint" />
            <mxPoint x="561" y="230" as="targetPoint" />
          </mxGeometry>
        </mxCell>
        <mxCell id="_zV6KzTDaz2BEm2wTDxe-187" value="" style="endArrow=diamondThin;endFill=0;endSize=24;html=1;rounded=0;" edge="1" parent="_zV6KzTDaz2BEm2wTDxe-149" source="_zV6KzTDaz2BEm2wTDxe-169" target="_zV6KzTDaz2BEm2wTDxe-180">
          <mxGeometry width="160" relative="1" as="geometry">
            <mxPoint x="374" y="310" as="sourcePoint" />
            <mxPoint x="433" y="224" as="targetPoint" />
          </mxGeometry>
        </mxCell>
        <mxCell id="_zV6KzTDaz2BEm2wTDxe-196" value="" style="endArrow=diamondThin;endFill=0;endSize=24;html=1;rounded=0;" edge="1" parent="_zV6KzTDaz2BEm2wTDxe-149" source="_zV6KzTDaz2BEm2wTDxe-194" target="_zV6KzTDaz2BEm2wTDxe-190">
          <mxGeometry width="160" relative="1" as="geometry">
            <mxPoint x="532" y="380" as="sourcePoint" />
            <mxPoint x="546" y="314" as="targetPoint" />
          </mxGeometry>
        </mxCell>
        <mxCell id="_zV6KzTDaz2BEm2wTDxe-215" value="" style="endArrow=diamondThin;endFill=0;endSize=24;html=1;rounded=0;" edge="1" parent="_zV6KzTDaz2BEm2wTDxe-149" source="_zV6KzTDaz2BEm2wTDxe-204" target="_zV6KzTDaz2BEm2wTDxe-200">
          <mxGeometry width="160" relative="1" as="geometry">
            <mxPoint x="583" y="390" as="sourcePoint" />
            <mxPoint x="626" y="314" as="targetPoint" />
          </mxGeometry>
        </mxCell>
        <mxCell id="_zV6KzTDaz2BEm2wTDxe-216" value="" style="endArrow=diamondThin;endFill=0;endSize=24;html=1;rounded=0;" edge="1" parent="_zV6KzTDaz2BEm2wTDxe-149" source="_zV6KzTDaz2BEm2wTDxe-222">
          <mxGeometry width="160" relative="1" as="geometry">
            <mxPoint x="740.9574468085102" y="494" as="sourcePoint" />
            <mxPoint x="850" y="260" as="targetPoint" />
            <Array as="points">
              <mxPoint x="850" y="520" />
              <mxPoint x="850" y="330" />
            </Array>
          </mxGeometry>
        </mxCell>
        <mxCell id="_zV6KzTDaz2BEm2wTDxe-218" value="cloudinary" style="shape=folder;fontStyle=1;tabWidth=110;tabHeight=30;tabPosition=left;html=1;boundedLbl=1;labelInHeader=1;container=1;collapsible=0;recursiveResize=0;whiteSpace=wrap;" vertex="1" parent="_zV6KzTDaz2BEm2wTDxe-149">
          <mxGeometry x="20" y="180" width="170" height="100" as="geometry" />
        </mxCell>
        <mxCell id="_zV6KzTDaz2BEm2wTDxe-219" value="Cloudinary" style="swimlane;fontStyle=1;align=center;verticalAlign=top;childLayout=stackLayout;horizontal=1;startSize=26;horizontalStack=0;resizeParent=1;resizeParentMax=0;resizeLast=0;collapsible=1;marginBottom=0;whiteSpace=wrap;html=1;" vertex="1" parent="_zV6KzTDaz2BEm2wTDxe-218">
          <mxGeometry x="15" y="50" width="140" height="34" as="geometry" />
        </mxCell>
        <mxCell id="_zV6KzTDaz2BEm2wTDxe-220" value="" style="line;strokeWidth=1;fillColor=none;align=left;verticalAlign=middle;spacingTop=-1;spacingLeft=3;spacingRight=3;rotatable=0;labelPosition=right;points=[];portConstraint=eastwest;strokeColor=inherit;" vertex="1" parent="_zV6KzTDaz2BEm2wTDxe-219">
          <mxGeometry y="26" width="140" height="8" as="geometry" />
        </mxCell>
        <mxCell id="_zV6KzTDaz2BEm2wTDxe-221" value="" style="endArrow=diamondThin;endFill=0;endSize=24;html=1;rounded=0;" edge="1" parent="_zV6KzTDaz2BEm2wTDxe-149" source="_zV6KzTDaz2BEm2wTDxe-219" target="_zV6KzTDaz2BEm2wTDxe-175">
          <mxGeometry width="160" relative="1" as="geometry">
            <mxPoint x="187" y="370" as="sourcePoint" />
            <mxPoint x="326" y="244" as="targetPoint" />
          </mxGeometry>
        </mxCell>
        <mxCell id="_zV6KzTDaz2BEm2wTDxe-226" value="" style="endArrow=diamondThin;endFill=0;endSize=24;html=1;rounded=0;entryX=0.577;entryY=0.793;entryDx=0;entryDy=0;entryPerimeter=0;" edge="1" parent="_zV6KzTDaz2BEm2wTDxe-149" source="_zV6KzTDaz2BEm2wTDxe-224" target="_zV6KzTDaz2BEm2wTDxe-210">
          <mxGeometry width="160" relative="1" as="geometry">
            <mxPoint x="623" y="450" as="sourcePoint" />
            <mxPoint x="755" y="314" as="targetPoint" />
            <Array as="points">
              <mxPoint x="840" y="320" />
            </Array>
          </mxGeometry>
        </mxCell>
      </root>
    </mxGraphModel>
  </diagram>
</mxfile>
